<svg width="36" height="22" viewBox="0 0 36 22" fill="none" xmlns="http://www.w3.org/2000/svg">
<path d="M15.7487 4.11769C14.1814 2.42417 11.381 0.684347 7.52733 0.541613C2.24932 0.34487 0.13502 1.00261 0.13502 1.00261C0.13502 1.00261 0.446169 1.5504 0.480956 2.58812C0.517676 3.62584 0.384325 4.30865 0.384325 4.30865L0.730261 4.5324C0.730261 4.5324 1.8454 3.62391 3.57703 3.2555C6.19961 2.69613 9.10822 2.5534 12.069 4.33951C15.341 6.31658 15.6366 10.0238 15.6366 10.0238H10.4862C8.13611 10.0238 5.47874 10.8378 2.88902 13.5343C-0.0853002 16.632 0.12149 21.7088 0.12149 21.7088H8.53422C12.3898 21.7088 15.3313 19.0894 16.516 17.3341C17.6987 15.5789 18.0582 14.6531 18.0582 10.8204C18.0582 7.281 17.3161 5.80929 15.7487 4.11769ZM15.5033 14.1593C15.4009 14.8942 14.9312 15.9936 13.3639 17.2859C11.7965 18.5783 8.53423 18.9544 7.17559 18.9544H3.50359C3.50359 18.9544 3.52485 18.2041 3.67173 17.637C3.98288 16.4449 4.93567 14.5084 7.35145 13.0077C9.76531 11.5071 12.7087 11.6749 12.7087 11.6749H15.6115C15.6115 11.6749 15.6076 13.4244 15.5033 14.1593Z" fill="white"/>
<path d="M13.4353 13.1274H14.5717C14.5717 13.1274 14.6838 13.8855 13.932 14.6435C13.1802 15.4016 10.778 16.0554 9.37293 16.4759C7.96791 16.8964 6.25366 17.9361 6.25366 17.9361C6.25366 17.9361 6.92622 17.1607 7.63356 16.7633C9.41545 15.7642 11.0756 15.3128 12.3357 14.4757C13.4856 13.7138 13.4353 13.1274 13.4353 13.1274Z" fill="white"/>
<path d="M35.7341 17.9631L35.3881 17.7413C35.3881 17.7413 34.273 18.6498 32.5414 19.0182C29.9188 19.5776 27.0102 19.7203 24.0494 17.9323C20.7774 15.9571 20.4817 12.2499 20.4817 12.2499H25.6303C27.9823 12.2499 30.6377 11.4359 33.2294 8.73746C36.2037 5.64166 35.9969 0.564941 35.9969 0.564941H27.5842C23.7286 0.564941 20.7852 3.18239 19.6024 4.93956C18.4196 6.69481 18.0582 7.62066 18.0582 11.4513C18.0582 14.9908 18.8023 16.4644 20.3696 18.156C21.937 19.8476 24.7374 21.5874 28.5911 21.7321C33.8691 21.9288 35.9834 21.2711 35.9834 21.2711C35.9834 21.2711 35.6722 20.7233 35.6374 19.6856C35.6007 18.6479 35.7341 17.9631 35.7341 17.9631ZM20.6132 8.11445C20.7175 7.37956 21.1852 6.28011 22.7526 4.98779C24.3199 3.69353 27.5842 3.31933 28.9428 3.31933H32.6129C32.6129 3.31933 32.5935 4.06965 32.4467 4.63674C32.1355 5.82876 31.1827 7.76532 28.7669 9.26597C26.3511 10.7647 23.4097 10.5988 23.4097 10.5988H20.5069C20.5069 10.5988 20.5107 8.84741 20.6132 8.11445Z" fill="white"/>
<path d="M22.6811 9.14455H21.5447C21.5447 9.14455 21.4326 8.38651 22.1844 7.62848C22.9362 6.87044 25.3385 6.21656 26.7435 5.79607C28.1485 5.37559 29.8628 4.33594 29.8628 4.33594C29.8628 4.33594 29.1902 5.11133 28.4829 5.50868C26.701 6.50782 25.0409 6.95917 23.7808 7.79629C22.6309 8.55818 22.6811 9.14455 22.6811 9.14455Z" fill="white"/>
</svg>
